<svg width="630" height="630" viewBox="0 0 630 630" fill="none" xmlns="http://www.w3.org/2000/svg">
<g filter="url(#filter0_d)">
<circle cx="315" cy="315" r="247.753" fill="url(#paint0_angular)"/>
<g filter="url(#filter1_d)">
<path d="M460.224 367.19C457.836 367.19 455.728 368.103 454.113 369.649C453.551 370.14 452.778 370.281 452.076 370.07L359.009 336.285C361.326 331.157 362.661 325.468 362.661 319.498C362.661 317.32 362.45 315.213 362.169 313.106L397.5 303.343C398.202 303.132 398.905 303.413 399.256 304.045C403.119 310.999 410.564 315.775 419.063 315.775C432.128 315.775 442.594 304.747 441.681 291.542C440.908 280.374 431.847 271.313 420.679 270.541C407.404 269.628 396.446 280.093 396.446 293.158C396.446 294.141 396.516 295.125 396.657 296.038C396.727 296.74 396.306 297.372 395.603 297.583L360.765 307.206C355.988 292.245 342.853 281.077 326.769 279.25V201.074C326.769 199.458 327.892 198.053 329.508 197.632C340.606 194.893 348.894 184.848 348.894 172.837C348.894 158.157 336.462 146.357 321.501 147.411C308.998 148.324 298.884 158.368 297.9 170.871C296.917 183.584 305.205 194.471 316.724 197.562C318.059 197.913 318.972 199.107 318.972 200.512V279.04C306.891 279.953 296.285 286.134 289.471 295.265L255.054 267.942C254.492 267.45 254.281 266.677 254.492 266.045C255.054 264.43 255.195 262.604 254.843 260.707C254 256.212 250.278 252.7 245.712 252.208C239.11 251.435 233.561 256.774 233.982 263.306C234.263 268.223 238.126 272.437 243.043 273.069C245.291 273.35 247.398 272.929 249.224 272.016C249.646 271.805 250.137 271.875 250.488 272.156L286.1 300.392C283.08 306.082 281.324 312.544 281.324 319.498C281.324 323.782 281.956 327.856 283.22 331.719L197.458 365.083C195.631 365.785 193.524 365.294 192.119 363.889C188.678 360.307 183.761 358.2 178.352 358.551C169.994 359.113 163.11 365.856 162.338 374.214C161.354 385.101 170.415 394.162 181.373 393.109C188.326 392.406 194.227 387.419 196.193 380.746C196.615 379.412 196.825 378.077 196.896 376.813C196.966 375.057 198.09 373.582 199.705 372.95L286.451 339.235C290.385 346.259 296.285 352.019 303.449 355.671L290.455 391.423C290.244 391.985 289.752 392.336 289.12 392.336C282.939 392.336 277.952 397.464 278.233 403.715C278.514 409.264 283.08 413.829 288.629 414.11C294.88 414.391 300.007 409.404 300.007 403.223C300.007 399.992 298.603 397.112 296.355 395.075C295.793 394.584 295.512 393.741 295.793 393.038L308.577 357.848C312.791 359.323 317.216 360.096 321.922 360.096C325.926 360.096 329.789 359.534 333.441 358.41L360.765 433.848C361.256 435.182 360.765 436.727 359.641 437.5C352.898 442.206 348.613 450.073 348.754 458.923C349.035 472.831 360.624 484.069 374.531 483.928C388.509 483.788 399.747 472.409 399.747 458.431C399.747 444.313 388.298 432.934 374.251 432.934C373.618 432.934 372.986 432.934 372.354 433.005C371.3 433.075 370.317 432.443 369.896 431.459L342.081 354.688C347.63 351.527 352.336 347.102 355.778 341.764L450.531 376.111C451.022 376.251 451.303 376.673 451.444 377.164C452.146 381.238 455.658 384.399 459.943 384.399C464.789 384.399 468.723 380.325 468.512 375.479C468.582 370.913 464.719 367.19 460.224 367.19Z" fill="#E37A39"/>
</g>
</g>
<defs>
<filter id="filter0_d" x="63.2471" y="67.2471" width="503.506" height="503.506" filterUnits="userSpaceOnUse" color-interpolation-filters="sRGB">
<feFlood flood-opacity="0" result="BackgroundImageFix"/>
<feColorMatrix in="SourceAlpha" type="matrix" values="0 0 0 0 0 0 0 0 0 0 0 0 0 0 0 0 0 0 127 0"/>
<feOffset dy="4"/>
<feGaussianBlur stdDeviation="2"/>
<feColorMatrix type="matrix" values="0 0 0 0 0 0 0 0 0 0 0 0 0 0 0 0 0 0 0.25 0"/>
<feBlend mode="normal" in2="BackgroundImageFix" result="effect1_dropShadow"/>
<feBlend mode="normal" in="SourceGraphic" in2="effect1_dropShadow" result="shape"/>
</filter>
<filter id="filter1_d" x="158.265" y="147.345" width="314.255" height="344.585" filterUnits="userSpaceOnUse" color-interpolation-filters="sRGB">
<feFlood flood-opacity="0" result="BackgroundImageFix"/>
<feColorMatrix in="SourceAlpha" type="matrix" values="0 0 0 0 0 0 0 0 0 0 0 0 0 0 0 0 0 0 127 0"/>
<feOffset dy="4"/>
<feGaussianBlur stdDeviation="2"/>
<feColorMatrix type="matrix" values="0 0 0 0 0 0 0 0 0 0 0 0 0 0 0 0 0 0 0.25 0"/>
<feBlend mode="normal" in2="BackgroundImageFix" result="effect1_dropShadow"/>
<feBlend mode="normal" in="SourceGraphic" in2="effect1_dropShadow" result="shape"/>
</filter>
<radialGradient id="paint0_angular" cx="0" cy="0" r="1" gradientUnits="userSpaceOnUse" gradientTransform="translate(315 315) rotate(-123.266) scale(262.519 314.942)">
<stop offset="0.526479" stop-color="#E3E3E3"/>
<stop offset="1" stop-color="white" stop-opacity="0.94"/>
</radialGradient>
</defs>
</svg>
